<svg xmlns="http://www.w3.org/2000/svg" width="12.052" height="12.051" viewBox="0 0 12.052 12.051">
  <g id="Group_16440" data-name="Group 16440" transform="translate(11.927 0.125) rotate(90)">
    <path id="Path_10227" data-name="Path 10227" d="M15.6-9.085l3.15,3.15-.685.685L14.914-8.4a4.826,4.826,0,0,1-3.067,1.094A4.847,4.847,0,0,1,7-12.153,4.847,4.847,0,0,1,11.847-17a4.847,4.847,0,0,1,4.847,4.847A4.827,4.827,0,0,1,15.6-9.085Zm-3.753.81a3.877,3.877,0,0,0,3.877-3.878,3.877,3.877,0,0,0-3.877-3.878,3.877,3.877,0,0,0-3.877,3.878A3.877,3.877,0,0,0,11.847-8.275Z" transform="translate(-7 17)" fill="#a5a7ab" stroke="#a5a7ab" stroke-width="0.25" fill-rule="evenodd"/>
  </g>
</svg>
